# File created by Blade
# Date/Time:  Wed Jan 21 19:19:18 2015
# Frame Rate: 120.000 fps
#------------------------------------------------------
:FULLY-SPECIFIED
:DEGREES
937
root -1.319667 13.562323 -2.679866 55.872735 -44.995399 16.971235
RightUpLeg -183.600674 -20.509597 34.200838
RightLeg 102.713032 -0.000000 -0.000000
RightFoot 2.479991 23.320198 24.308911
RightToeBase 32.225764 -0.000000 -0.000000
LeftUpLeg -21.386258 26.057713 19.506994
LeftLeg 16.701345 -0.000000 -0.000000
LeftFoot -37.876049 32.551930 -14.471873
LeftToeBase 14.609912 -0.000000 -0.000000
Spine -32.297512 15.917959 21.449091
RightShoulder -10.231680 29.526877 -19.878118
RightArm 6.188458 -39.712786 56.686722
RightForeArm -18.540115 -0.000000 8.782856
RightHand 54.566762 -0.000000 -62.805848
RightHandThumb1 -24.326973 -0.000000 -32.862282
LeftShoulder -18.472363 -20.312965 70.907482
LeftArm 77.568900 -44.136128 -15.073437
LeftForeArm 20.816168 -0.000000 15.045644
LeftHand -18.099920 -0.000000 9.805808
LeftHandThumb1 -26.253704 0.000000 33.147579
Head -34.787450 15.366835 50.227692
938
root -1.313060 13.570897 -2.697071 55.736368 -44.905496 17.071937
RightUpLeg -183.566681 -20.642757 34.169373
RightLeg 102.691630 -0.000000 -0.000000
RightFoot 2.436782 23.305488 24.340826
RightToeBase 32.424205 -0.000000 -0.000000
LeftUpLeg -21.447820 25.956742 19.550569
LeftLeg 16.777141 -0.000000 -0.000000
LeftFoot -37.872123 32.531163 -14.468196
LeftToeBase 14.625879 -0.000000 -0.000000
Spine -32.289993 15.860689 21.378720
RightShoulder -9.971324 29.473755 -19.851120
RightArm 6.046703 -39.606884 56.804086
RightForeArm -18.389904 -0.000000 8.410348
RightHand 54.810390 -0.000000 -63.070334
RightHandThumb1 -24.326973 -0.000000 -32.862282
LeftShoulder -18.413748 -20.269525 70.833590
LeftArm 77.383724 -44.274228 -15.084516
LeftForeArm 20.710777 -0.000000 15.106857
LeftHand -18.188920 -0.000000 9.990882
LeftHandThumb1 -26.253704 0.000000 33.147579
Head -34.407324 15.088340 49.817217
939
root -1.305316 13.580786 -2.713474 55.561748 -44.783065 17.230015
RightUpLeg -183.580525 -20.810739 34.166731
RightLeg 102.672740 -0.000000 -0.000000
RightFoot 2.356239 23.277423 24.325704
RightToeBase 32.580658 -0.000000 -0.000000
LeftUpLeg -21.553900 25.848918 19.569679
LeftLeg 16.871236 -0.000000 -0.000000
LeftFoot -37.897314 32.417623 -14.487568
LeftToeBase 14.624917 -0.000000 -0.000000
Spine -32.294467 15.755564 21.306373
RightShoulder -9.806621 29.187676 -19.782605
RightArm 6.401291 -40.008212 56.561206
RightForeArm -17.741736 0.000000 7.982066
RightHand 54.876006 -0.000000 -63.230451
RightHandThumb1 -24.326973 -0.000000 -32.862282
LeftShoulder -18.390681 -20.235658 70.773853
LeftArm 77.362257 -44.410942 -15.313074
LeftForeArm 20.711175 0.000000 15.138566
LeftHand -18.293310 -0.000000 10.139001
LeftHandThumb1 -26.253704 0.000000 33.147579
Head -34.043136 14.879421 49.392805
940
root -1.298217 13.592599 -2.730454 55.372451 -44.668148 17.384459
RightUpLeg -183.563150 -20.979499 34.148864
RightLeg 102.646873 -0.000000 -0.000000
RightFoot 2.274687 23.241765 24.311347
RightToeBase 32.625140 -0.000000 -0.000000
LeftUpLeg -21.653548 25.791791 19.570601
LeftLeg 16.961722 -0.000000 -0.000000
LeftFoot -37.994657 32.207370 -14.632004
LeftToeBase 14.739661 -0.000000 -0.000000
Spine -32.272725 15.664968 21.223968
RightShoulder -9.675069 29.087979 -19.773317
RightArm 6.586359 -40.498459 56.476962
RightForeArm -16.990293 -0.000000 7.409839
RightHand 55.156681 -0.000000 -63.355793
RightHandThumb1 -24.326973 -0.000000 -32.862282
LeftShoulder -18.385654 -20.177585 70.684943
LeftArm 77.373680 -44.588351 -15.548589
LeftForeArm 20.694962 -0.000000 15.163026
LeftHand -18.283550 -0.000000 10.325060
LeftHandThumb1 -26.253704 0.000000 33.147579
Head -33.709051 14.652523 48.949006
941
root -1.286961 13.607316 -2.755682 55.247622 -44.591643 17.543707
RightUpLeg -183.568797 -21.106137 34.072850
RightLeg 102.583305 -0.000000 -0.000000
RightFoot 2.246824 23.172976 24.390626
RightToeBase 32.705505 -0.000000 -0.000000
LeftUpLeg -21.816176 25.721384 19.532380
LeftLeg 17.050879 -0.000000 -0.000000
LeftFoot -38.014219 32.104124 -14.676284
LeftToeBase 14.754890 -0.000000 -0.000000
Spine -32.297571 15.567150 21.098652
RightShoulder -9.465429 29.086899 -19.742196
RightArm 6.543474 -40.738754 56.541568
RightForeArm -16.550409 -0.000000 6.993373
RightHand 55.269831 0.000000 -63.355337
RightHandThumb1 -24.326973 -0.000000 -32.862282
LeftShoulder -18.369661 -20.094357 70.622821
LeftArm 77.212173 -44.740437 -15.646833
LeftForeArm 20.598873 -0.000000 15.295352
LeftHand -18.409122 0.000000 10.497113
LeftHandThumb1 -26.253704 0.000000 33.147579
Head -33.252947 14.490694 48.550630
942
root -1.286547 13.614644 -2.763946 55.029227 -44.418466 17.662258
RightUpLeg -183.550098 -21.326660 34.145913
RightLeg 102.613943 -0.000000 -0.000000
RightFoot 2.173753 23.195169 24.340749
RightToeBase 32.675322 -0.000000 -0.000000
LeftUpLeg -21.798044 25.688079 19.604932
LeftLeg 17.029375 -0.000000 -0.000000
LeftFoot -37.905701 32.001429 -14.537846
LeftToeBase 14.789729 -0.000000 -0.000000
Spine -32.270558 15.450107 21.100745
RightShoulder -9.316183 28.948767 -19.720160
RightArm 6.592664 -40.907621 56.518206
RightForeArm -16.178193 -0.000000 6.663142
RightHand 55.337545 -0.000000 -63.338614
RightHandThumb1 -24.326973 -0.000000 -32.862282
LeftShoulder -18.363537 -20.078318 70.548114
LeftArm 77.314941 -44.809463 -16.061324
LeftForeArm 20.632424 0.000000 15.340986
LeftHand -18.478662 -0.000000 10.854846
LeftHandThumb1 -26.253704 0.000000 33.147579
Head -32.813242 14.297966 48.073602
943
root -1.282724 13.627596 -2.782755 54.865877 -44.258815 17.756231
RightUpLeg -183.505502 -21.509262 34.176822
RightLeg 102.603918 -0.000000 -0.000000
RightFoot 2.103924 23.191510 24.359237
RightToeBase 32.736706 -0.000000 -0.000000
LeftUpLeg -21.832584 25.674119 19.664754
LeftLeg 17.006458 -0.000000 -0.000000
LeftFoot -37.819781 31.911678 -14.419053
LeftToeBase 14.817461 -0.000000 -0.000000
Spine -32.250623 15.314550 21.096664
RightShoulder -9.104509 28.756260 -19.621745
RightArm 6.753962 -41.037439 56.398745
RightForeArm -15.677931 -0.000000 6.342543
RightHand 55.540831 -0.000000 -62.889657
RightHandThumb1 -24.326973 -0.000000 -32.862282
LeftShoulder -18.364378 -19.987133 70.473885
LeftArm 77.504388 -44.936118 -16.548997
LeftForeArm 20.718130 -0.000000 15.348330
LeftHand -18.508271 -0.000000 11.041612
LeftHandThumb1 -26.253704 0.000000 33.147579
Head -32.229338 14.145794 47.724889
944
root -1.275179 13.645024 -2.801766 54.710115 -44.112805 17.850639
RightUpLeg -183.445976 -21.684326 34.192362
RightLeg 102.569243 -0.000000 -0.000000
RightFoot 2.031687 23.201575 24.395261
RightToeBase 32.821754 -0.000000 -0.000000
LeftUpLeg -21.878651 25.518183 19.746698
LeftLeg 17.036133 -0.000000 -0.000000
LeftFoot -37.804834 31.916894 -14.408320
LeftToeBase 14.833749 -0.000000 -0.000000
Spine -32.222217 15.188203 21.104605
RightShoulder -8.865202 28.621544 -19.537672
RightArm 6.817693 -41.077539 56.344396
RightForeArm -15.297832 0.000000 6.044001
RightHand 55.712818 -0.000000 -62.572665
RightHandThumb1 -24.326973 -0.000000 -32.862282
LeftShoulder -18.360469 -19.924589 70.365889
LeftArm 77.584069 -45.020518 -16.916999
LeftForeArm 20.736832 0.000000 15.413819
LeftHand -18.571889 -0.000000 11.210401
LeftHandThumb1 -26.253704 0.000000 33.147579
Head -31.674117 14.078191 47.277942
945
root -1.269320 13.659629 -2.817245 54.607285 -43.981602 17.944860
RightUpLeg -183.439664 -21.838002 34.213169
RightLeg 102.553185 -0.000000 -0.000000
RightFoot 1.934956 23.263322 24.418952
RightToeBase 32.905383 -0.000000 -0.000000
LeftUpLeg -21.959307 25.441157 19.775083
LeftLeg 17.022009 -0.000000 -0.000000
LeftFoot -37.756422 31.908794 -14.338997
LeftToeBase 14.857346 -0.000000 -0.000000
Spine -32.271152 15.103196 21.067850
RightShoulder -8.682061 28.505103 -19.457213
RightArm 6.824829 -41.124221 56.300631
RightForeArm -14.981534 -0.000000 5.842938
RightHand 55.758691 -0.000000 -62.197669
RightHandThumb1 -24.326973 -0.000000 -32.862282
LeftShoulder -18.286336 -19.931590 70.270247
LeftArm 77.341034 -45.051396 -16.945119
LeftForeArm 20.517428 -0.000000 15.535568
LeftHand -18.550658 -0.000000 11.435776
LeftHandThumb1 -26.253704 0.000000 33.147579
Head -31.087223 13.918564 46.827809
946
root -1.263935 13.675186 -2.834697 54.492198 -43.874402 17.964001
RightUpLeg -183.321715 -21.984443 34.198497
RightLeg 102.526980 -0.000000 -0.000000
RightFoot 1.858235 23.369106 24.507385
RightToeBase 32.855039 -0.000000 -0.000000
LeftUpLeg -21.955778 25.422823 19.850956
LeftLeg 17.024353 -0.000000 -0.000000
LeftFoot -37.719170 31.869434 -14.269925
LeftToeBase 14.841665 -0.000000 -0.000000
Spine -32.227539 15.042740 21.067346
RightShoulder -8.479036 28.441412 -19.380178
RightArm 6.826094 -41.098951 56.285082
RightForeArm -14.743939 -0.000000 5.510013
RightHand 56.092242 -0.000000 -61.773593
RightHandThumb1 -24.326973 -0.000000 -32.862282
LeftShoulder -18.218747 -19.912450 70.155624
LeftArm 77.086031 -45.080384 -16.929596
LeftForeArm 20.401878 -0.000000 15.667173
LeftHand -18.665911 -0.000000 11.683776
LeftHandThumb1 -26.253704 0.000000 33.147579
Head -30.494291 13.788314 46.411839
947
root -1.251013 13.697824 -2.861569 54.459946 -43.720247 18.100616
RightUpLeg -183.385406 -22.128271 34.214795
RightLeg 102.472940 -0.000000 -0.000000
RightFoot 1.746587 23.482076 24.666581
RightToeBase 32.902688 -0.000000 -0.000000
LeftUpLeg -22.226660 25.266104 19.844825
LeftLeg 17.121849 -0.000000 -0.000000
LeftFoot -37.742568 31.871115 -14.293388
LeftToeBase 14.863706 -0.000000 -0.000000
Spine -32.366513 14.975189 20.975250
RightShoulder -8.339693 28.361411 -19.315949
RightArm 6.920524 -41.204916 56.198456
RightForeArm -14.421366 0.000000 5.158160
RightHand 56.345296 0.000000 -61.232801
RightHandThumb1 -24.326973 -0.000000 -32.862282
LeftShoulder -18.136497 -19.894180 70.085259
LeftArm 76.827881 -45.131860 -17.059209
LeftForeArm 20.327356 -0.000000 15.895286
LeftHand -18.764557 -0.000000 11.927957
LeftHandThumb1 -26.253704 0.000000 33.147579
Head -29.916966 13.676519 45.966044
948
root -1.239899 13.720141 -2.890038 54.437777 -43.622111 18.160555
RightUpLeg -183.348002 -22.246599 34.156909
RightLeg 102.419557 -0.000000 -0.000000
RightFoot 1.633430 23.612723 24.895841
RightToeBase 33.031617 -0.000000 -0.000000
LeftUpLeg -22.388938 25.186636 19.864913
LeftLeg 17.165105 -0.000000 -0.000000
LeftFoot -37.619980 31.970116 -14.134510
LeftToeBase 14.774318 -0.000000 -0.000000
Spine -32.418963 14.954556 20.881624
RightShoulder -8.234407 28.291215 -19.227673
RightArm 6.995661 -41.235578 56.102959
RightForeArm -14.250226 -0.000000 4.910379
RightHand 56.374830 0.000000 -60.811666
RightHandThumb1 -24.326973 -0.000000 -32.862282
LeftShoulder -18.146137 -19.840715 70.001996
LeftArm 76.963623 -45.220334 -17.535612
LeftForeArm 20.540403 -0.000000 15.962167
LeftHand -18.743594 -0.000000 11.864515
LeftHandThumb1 -26.253704 0.000000 33.147579
Head -29.361046 13.559580 45.586909
